<svg xmlns="http://www.w3.org/2000/svg" viewBox="0 0 36 36" width="216" height="216" shape-rendering="crispEdges" role="img" aria-label="Desk 404"><rect x="4" y="1" width="25" height="1" fill="#f6eee1"/><rect x="4" y="2" width="26" height="1" fill="#f6eee1"/><rect x="4" y="3" width="1" height="1" fill="#f6eee1"/><rect x="5" y="3" width="23" height="1" fill="#e9dfcd"/><rect x="28" y="3" width="1" height="1" fill="#c9bca6"/><rect x="29" y="3" width="2" height="1" fill="#f6eee1"/><rect x="4" y="4" width="1" height="1" fill="#f6eee1"/><rect x="5" y="4" width="23" height="1" fill="#e9dfcd"/><rect x="28" y="4" width="2" height="1" fill="#c9bca6"/><rect x="30" y="4" width="2" height="1" fill="#f6eee1"/><rect x="4" y="5" width="1" height="1" fill="#f6eee1"/><rect x="5" y="5" width="23" height="1" fill="#e9dfcd"/><rect x="28" y="5" width="2" height="1" fill="#c9bca6"/><rect x="30" y="5" width="1" height="1" fill="#b4a68f"/><rect x="31" y="5" width="2" height="1" fill="#f6eee1"/><rect x="4" y="6" width="1" height="1" fill="#f6eee1"/><rect x="5" y="6" width="2" height="1" fill="#e9dfcd"/><rect x="7" y="6" width="18" height="1" fill="#6f6a64"/><rect x="25" y="6" width="3" height="1" fill="#e9dfcd"/><rect x="28" y="6" width="2" height="1" fill="#c9bca6"/><rect x="30" y="6" width="2" height="1" fill="#b4a68f"/><rect x="32" y="6" width="2" height="1" fill="#f6eee1"/><rect x="4" y="7" width="1" height="1" fill="#f6eee1"/><rect x="5" y="7" width="2" height="1" fill="#e9dfcd"/><rect x="7" y="7" width="1" height="1" fill="#6f6a64"/><rect x="8" y="7" width="16" height="1" fill="#141414"/><rect x="24" y="7" width="1" height="1" fill="#8d8780"/><rect x="25" y="7" width="3" height="1" fill="#e9dfcd"/><rect x="28" y="7" width="2" height="1" fill="#c9bca6"/><rect x="30" y="7" width="3" height="1" fill="#b4a68f"/><rect x="33" y="7" width="1" height="1" fill="#f6eee1"/><rect x="4" y="8" width="1" height="1" fill="#f6eee1"/><rect x="5" y="8" width="2" height="1" fill="#e9dfcd"/><rect x="7" y="8" width="1" height="1" fill="#6f6a64"/><rect x="8" y="8" width="16" height="1" fill="#1f1f1f"/><rect x="24" y="8" width="1" height="1" fill="#8d8780"/><rect x="25" y="8" width="3" height="1" fill="#e9dfcd"/><rect x="28" y="8" width="2" height="1" fill="#c9bca6"/><rect x="30" y="8" width="4" height="1" fill="#b4a68f"/><rect x="4" y="9" width="1" height="1" fill="#f6eee1"/><rect x="5" y="9" width="2" height="1" fill="#e9dfcd"/><rect x="7" y="9" width="1" height="1" fill="#6f6a64"/><rect x="8" y="9" width="16" height="1" fill="#141414"/><rect x="24" y="9" width="1" height="1" fill="#8d8780"/><rect x="25" y="9" width="3" height="1" fill="#e9dfcd"/><rect x="28" y="9" width="2" height="1" fill="#c9bca6"/><rect x="30" y="9" width="4" height="1" fill="#b4a68f"/><rect x="4" y="10" width="1" height="1" fill="#f6eee1"/><rect x="5" y="10" width="2" height="1" fill="#e9dfcd"/><rect x="7" y="10" width="1" height="1" fill="#6f6a64"/><rect x="8" y="10" width="16" height="1" fill="#1f1f1f"/><rect x="24" y="10" width="1" height="1" fill="#8d8780"/><rect x="25" y="10" width="3" height="1" fill="#e9dfcd"/><rect x="28" y="10" width="2" height="1" fill="#c9bca6"/><rect x="30" y="10" width="4" height="1" fill="#b4a68f"/><rect x="4" y="11" width="1" height="1" fill="#f6eee1"/><rect x="5" y="11" width="2" height="1" fill="#e9dfcd"/><rect x="7" y="11" width="1" height="1" fill="#6f6a64"/><rect x="8" y="11" width="1" height="1" fill="#141414"/><rect x="9" y="11" width="1" height="1" fill="#6bd873"/><rect x="10" y="11" width="2" height="1" fill="#141414"/><rect x="12" y="11" width="1" height="1" fill="#6bd873"/><rect x="13" y="11" width="1" height="1" fill="#141414"/><rect x="14" y="11" width="4" height="1" fill="#6bd873"/><rect x="18" y="11" width="1" height="1" fill="#141414"/><rect x="19" y="11" width="1" height="1" fill="#6bd873"/><rect x="20" y="11" width="2" height="1" fill="#141414"/><rect x="22" y="11" width="1" height="1" fill="#6bd873"/><rect x="23" y="11" width="1" height="1" fill="#141414"/><rect x="24" y="11" width="1" height="1" fill="#8d8780"/><rect x="25" y="11" width="3" height="1" fill="#e9dfcd"/><rect x="28" y="11" width="2" height="1" fill="#c9bca6"/><rect x="30" y="11" width="4" height="1" fill="#b4a68f"/><rect x="4" y="12" width="1" height="1" fill="#f6eee1"/><rect x="5" y="12" width="2" height="1" fill="#e9dfcd"/><rect x="7" y="12" width="1" height="1" fill="#6f6a64"/><rect x="8" y="12" width="1" height="1" fill="#1f1f1f"/><rect x="9" y="12" width="1" height="1" fill="#6bd873"/><rect x="10" y="12" width="2" height="1" fill="#1f1f1f"/><rect x="12" y="12" width="1" height="1" fill="#6bd873"/><rect x="13" y="12" width="1" height="1" fill="#1f1f1f"/><rect x="14" y="12" width="1" height="1" fill="#6bd873"/><rect x="15" y="12" width="2" height="1" fill="#1f1f1f"/><rect x="17" y="12" width="1" height="1" fill="#6bd873"/><rect x="18" y="12" width="1" height="1" fill="#1f1f1f"/><rect x="19" y="12" width="1" height="1" fill="#6bd873"/><rect x="20" y="12" width="2" height="1" fill="#1f1f1f"/><rect x="22" y="12" width="1" height="1" fill="#6bd873"/><rect x="23" y="12" width="1" height="1" fill="#1f1f1f"/><rect x="24" y="12" width="1" height="1" fill="#8d8780"/><rect x="25" y="12" width="3" height="1" fill="#e9dfcd"/><rect x="28" y="12" width="2" height="1" fill="#c9bca6"/><rect x="30" y="12" width="4" height="1" fill="#b4a68f"/><rect x="4" y="13" width="1" height="1" fill="#f6eee1"/><rect x="5" y="13" width="2" height="1" fill="#e9dfcd"/><rect x="7" y="13" width="1" height="1" fill="#6f6a64"/><rect x="8" y="13" width="1" height="1" fill="#141414"/><rect x="9" y="13" width="1" height="1" fill="#6bd873"/><rect x="10" y="13" width="2" height="1" fill="#141414"/><rect x="12" y="13" width="1" height="1" fill="#6bd873"/><rect x="13" y="13" width="1" height="1" fill="#141414"/><rect x="14" y="13" width="1" height="1" fill="#6bd873"/><rect x="15" y="13" width="2" height="1" fill="#141414"/><rect x="17" y="13" width="1" height="1" fill="#6bd873"/><rect x="18" y="13" width="1" height="1" fill="#141414"/><rect x="19" y="13" width="1" height="1" fill="#6bd873"/><rect x="20" y="13" width="2" height="1" fill="#141414"/><rect x="22" y="13" width="1" height="1" fill="#6bd873"/><rect x="23" y="13" width="1" height="1" fill="#141414"/><rect x="24" y="13" width="1" height="1" fill="#8d8780"/><rect x="25" y="13" width="3" height="1" fill="#e9dfcd"/><rect x="28" y="13" width="2" height="1" fill="#c9bca6"/><rect x="30" y="13" width="4" height="1" fill="#b4a68f"/><rect x="4" y="14" width="1" height="1" fill="#f6eee1"/><rect x="5" y="14" width="2" height="1" fill="#e9dfcd"/><rect x="7" y="14" width="1" height="1" fill="#6f6a64"/><rect x="8" y="14" width="1" height="1" fill="#1f1f1f"/><rect x="9" y="14" width="4" height="1" fill="#6bd873"/><rect x="13" y="14" width="1" height="1" fill="#1f1f1f"/><rect x="14" y="14" width="1" height="1" fill="#6bd873"/><rect x="15" y="14" width="2" height="1" fill="#1f1f1f"/><rect x="17" y="14" width="1" height="1" fill="#6bd873"/><rect x="18" y="14" width="1" height="1" fill="#1f1f1f"/><rect x="19" y="14" width="4" height="1" fill="#6bd873"/><rect x="23" y="14" width="1" height="1" fill="#1f1f1f"/><rect x="24" y="14" width="1" height="1" fill="#8d8780"/><rect x="25" y="14" width="3" height="1" fill="#e9dfcd"/><rect x="28" y="14" width="2" height="1" fill="#c9bca6"/><rect x="30" y="14" width="4" height="1" fill="#b4a68f"/><rect x="4" y="15" width="1" height="1" fill="#f6eee1"/><rect x="5" y="15" width="2" height="1" fill="#e9dfcd"/><rect x="7" y="15" width="1" height="1" fill="#6f6a64"/><rect x="8" y="15" width="4" height="1" fill="#141414"/><rect x="12" y="15" width="1" height="1" fill="#6bd873"/><rect x="13" y="15" width="1" height="1" fill="#141414"/><rect x="14" y="15" width="1" height="1" fill="#6bd873"/><rect x="15" y="15" width="2" height="1" fill="#141414"/><rect x="17" y="15" width="1" height="1" fill="#6bd873"/><rect x="18" y="15" width="4" height="1" fill="#141414"/><rect x="22" y="15" width="1" height="1" fill="#6bd873"/><rect x="23" y="15" width="1" height="1" fill="#141414"/><rect x="24" y="15" width="1" height="1" fill="#8d8780"/><rect x="25" y="15" width="3" height="1" fill="#e9dfcd"/><rect x="28" y="15" width="2" height="1" fill="#c9bca6"/><rect x="30" y="15" width="4" height="1" fill="#b4a68f"/><rect x="4" y="16" width="1" height="1" fill="#f6eee1"/><rect x="5" y="16" width="2" height="1" fill="#e9dfcd"/><rect x="7" y="16" width="1" height="1" fill="#6f6a64"/><rect x="8" y="16" width="4" height="1" fill="#1f1f1f"/><rect x="12" y="16" width="1" height="1" fill="#6bd873"/><rect x="13" y="16" width="1" height="1" fill="#1f1f1f"/><rect x="14" y="16" width="4" height="1" fill="#6bd873"/><rect x="18" y="16" width="4" height="1" fill="#1f1f1f"/><rect x="22" y="16" width="1" height="1" fill="#6bd873"/><rect x="23" y="16" width="1" height="1" fill="#1f1f1f"/><rect x="24" y="16" width="1" height="1" fill="#8d8780"/><rect x="25" y="16" width="3" height="1" fill="#e9dfcd"/><rect x="28" y="16" width="2" height="1" fill="#c9bca6"/><rect x="30" y="16" width="4" height="1" fill="#b4a68f"/><rect x="4" y="17" width="1" height="1" fill="#f6eee1"/><rect x="5" y="17" width="2" height="1" fill="#e9dfcd"/><rect x="7" y="17" width="1" height="1" fill="#6f6a64"/><rect x="8" y="17" width="16" height="1" fill="#141414"/><rect x="24" y="17" width="1" height="1" fill="#8d8780"/><rect x="25" y="17" width="3" height="1" fill="#e9dfcd"/><rect x="28" y="17" width="2" height="1" fill="#c9bca6"/><rect x="30" y="17" width="4" height="1" fill="#b4a68f"/><rect x="4" y="18" width="1" height="1" fill="#f6eee1"/><rect x="5" y="18" width="2" height="1" fill="#e9dfcd"/><rect x="7" y="18" width="1" height="1" fill="#6f6a64"/><rect x="8" y="18" width="16" height="1" fill="#1f1f1f"/><rect x="24" y="18" width="1" height="1" fill="#8d8780"/><rect x="25" y="18" width="3" height="1" fill="#e9dfcd"/><rect x="28" y="18" width="2" height="1" fill="#c9bca6"/><rect x="30" y="18" width="4" height="1" fill="#b4a68f"/><rect x="4" y="19" width="1" height="1" fill="#f6eee1"/><rect x="5" y="19" width="2" height="1" fill="#e9dfcd"/><rect x="7" y="19" width="1" height="1" fill="#6f6a64"/><rect x="8" y="19" width="16" height="1" fill="#141414"/><rect x="24" y="19" width="1" height="1" fill="#8d8780"/><rect x="25" y="19" width="3" height="1" fill="#e9dfcd"/><rect x="28" y="19" width="2" height="1" fill="#c9bca6"/><rect x="30" y="19" width="4" height="1" fill="#b4a68f"/><rect x="4" y="20" width="1" height="1" fill="#f6eee1"/><rect x="5" y="20" width="2" height="1" fill="#e9dfcd"/><rect x="7" y="20" width="1" height="1" fill="#6f6a64"/><rect x="8" y="20" width="17" height="1" fill="#8d8780"/><rect x="25" y="20" width="3" height="1" fill="#e9dfcd"/><rect x="28" y="20" width="2" height="1" fill="#c9bca6"/><rect x="30" y="20" width="4" height="1" fill="#b4a68f"/><rect x="4" y="21" width="1" height="1" fill="#f6eee1"/><rect x="5" y="21" width="23" height="1" fill="#e9dfcd"/><rect x="28" y="21" width="2" height="1" fill="#c9bca6"/><rect x="30" y="21" width="4" height="1" fill="#b4a68f"/><rect x="4" y="22" width="1" height="1" fill="#f6eee1"/><rect x="5" y="22" width="23" height="1" fill="#e9dfcd"/><rect x="28" y="22" width="2" height="1" fill="#c9bca6"/><rect x="30" y="22" width="4" height="1" fill="#b4a68f"/><rect x="4" y="23" width="1" height="1" fill="#f6eee1"/><rect x="5" y="23" width="4" height="1" fill="#e9dfcd"/><rect x="9" y="23" width="10" height="1" fill="#141414"/><rect x="19" y="23" width="9" height="1" fill="#e9dfcd"/><rect x="28" y="23" width="2" height="1" fill="#c9bca6"/><rect x="30" y="23" width="4" height="1" fill="#b4a68f"/><rect x="4" y="24" width="1" height="1" fill="#f6eee1"/><rect x="5" y="24" width="4" height="1" fill="#ddd2be"/><rect x="9" y="24" width="10" height="1" fill="#b4a68f"/><rect x="19" y="24" width="9" height="1" fill="#ddd2be"/><rect x="28" y="24" width="2" height="1" fill="#c9bca6"/><rect x="30" y="24" width="4" height="1" fill="#b4a68f"/><rect x="4" y="25" width="1" height="1" fill="#f6eee1"/><rect x="5" y="25" width="23" height="1" fill="#ddd2be"/><rect x="28" y="25" width="2" height="1" fill="#c9bca6"/><rect x="30" y="25" width="4" height="1" fill="#b4a68f"/><rect x="4" y="26" width="1" height="1" fill="#f6eee1"/><rect x="5" y="26" width="23" height="1" fill="#ddd2be"/><rect x="28" y="26" width="2" height="1" fill="#c9bca6"/><rect x="30" y="26" width="4" height="1" fill="#b4a68f"/><rect x="4" y="27" width="1" height="1" fill="#f6eee1"/><rect x="5" y="27" width="23" height="1" fill="#b4a68f"/><rect x="28" y="27" width="2" height="1" fill="#c9bca6"/><rect x="30" y="27" width="4" height="1" fill="#b4a68f"/><rect x="0" y="28" width="34" height="1" fill="#f6eee1"/><rect x="34" y="28" width="2" height="1" fill="#c9bca6"/><rect x="0" y="29" width="34" height="1" fill="#f6eee1"/><rect x="34" y="29" width="2" height="1" fill="#c9bca6"/><rect x="0" y="30" width="1" height="1" fill="#f6eee1"/><rect x="1" y="30" width="2" height="1" fill="#e9dfcd"/><rect x="3" y="30" width="2" height="1" fill="#b8afa3"/><rect x="5" y="30" width="1" height="1" fill="#e9dfcd"/><rect x="6" y="30" width="2" height="1" fill="#b8afa3"/><rect x="8" y="30" width="1" height="1" fill="#e9dfcd"/><rect x="9" y="30" width="2" height="1" fill="#b8afa3"/><rect x="11" y="30" width="1" height="1" fill="#e9dfcd"/><rect x="12" y="30" width="2" height="1" fill="#b8afa3"/><rect x="14" y="30" width="1" height="1" fill="#e9dfcd"/><rect x="15" y="30" width="2" height="1" fill="#b8afa3"/><rect x="17" y="30" width="1" height="1" fill="#e9dfcd"/><rect x="18" y="30" width="2" height="1" fill="#b8afa3"/><rect x="20" y="30" width="1" height="1" fill="#e9dfcd"/><rect x="21" y="30" width="2" height="1" fill="#b8afa3"/><rect x="23" y="30" width="1" height="1" fill="#e9dfcd"/><rect x="24" y="30" width="2" height="1" fill="#b8afa3"/><rect x="26" y="30" width="3" height="1" fill="#e9dfcd"/><rect x="29" y="30" width="2" height="1" fill="#d63a2f"/><rect x="31" y="30" width="3" height="1" fill="#e9dfcd"/><rect x="34" y="30" width="2" height="1" fill="#c9bca6"/><rect x="0" y="31" width="1" height="1" fill="#f6eee1"/><rect x="1" y="31" width="2" height="1" fill="#e9dfcd"/><rect x="3" y="31" width="2" height="1" fill="#9d958a"/><rect x="5" y="31" width="1" height="1" fill="#e9dfcd"/><rect x="6" y="31" width="2" height="1" fill="#9d958a"/><rect x="8" y="31" width="1" height="1" fill="#e9dfcd"/><rect x="9" y="31" width="2" height="1" fill="#9d958a"/><rect x="11" y="31" width="1" height="1" fill="#e9dfcd"/><rect x="12" y="31" width="2" height="1" fill="#9d958a"/><rect x="14" y="31" width="1" height="1" fill="#e9dfcd"/><rect x="15" y="31" width="2" height="1" fill="#9d958a"/><rect x="17" y="31" width="1" height="1" fill="#e9dfcd"/><rect x="18" y="31" width="2" height="1" fill="#9d958a"/><rect x="20" y="31" width="1" height="1" fill="#e9dfcd"/><rect x="21" y="31" width="2" height="1" fill="#9d958a"/><rect x="23" y="31" width="1" height="1" fill="#e9dfcd"/><rect x="24" y="31" width="2" height="1" fill="#9d958a"/><rect x="26" y="31" width="3" height="1" fill="#e9dfcd"/><rect x="29" y="31" width="2" height="1" fill="#d63a2f"/><rect x="31" y="31" width="3" height="1" fill="#e9dfcd"/><rect x="34" y="31" width="2" height="1" fill="#c9bca6"/><rect x="0" y="32" width="1" height="1" fill="#f6eee1"/><rect x="1" y="32" width="33" height="1" fill="#e9dfcd"/><rect x="0" y="33" width="1" height="1" fill="#f6eee1"/><rect x="1" y="33" width="33" height="1" fill="#ddd2be"/><rect x="0" y="34" width="36" height="1" fill="#b4a68f"/></svg>
