<svg xmlns="http://www.w3.org/2000/svg" viewBox="0 0 73 24" width="584" height="192" shape-rendering="crispEdges" role="img" aria-label="Desk 404"><rect x="2" y="1" width="20" height="1" fill="#1a1915"/><rect x="1" y="2" width="2" height="1" fill="#1a1915"/><rect x="3" y="2" width="18" height="1" fill="#fbfaf5"/><rect x="21" y="2" width="2" height="1" fill="#1a1915"/><rect x="1" y="3" width="1" height="1" fill="#1a1915"/><rect x="2" y="3" width="1" height="1" fill="#fbfaf5"/><rect x="3" y="3" width="17" height="1" fill="#8e897d"/><rect x="20" y="3" width="1" height="1" fill="#fbfaf5"/><rect x="21" y="3" width="1" height="1" fill="#8e897d"/><rect x="22" y="3" width="1" height="1" fill="#1a1915"/><rect x="1" y="4" width="1" height="1" fill="#1a1915"/><rect x="2" y="4" width="1" height="1" fill="#fbfaf5"/><rect x="3" y="4" width="2" height="1" fill="#8e897d"/><rect x="5" y="4" width="14" height="1" fill="#1e3a5f"/><rect x="19" y="4" width="1" height="1" fill="#8e897d"/><rect x="20" y="4" width="1" height="1" fill="#fbfaf5"/><rect x="21" y="4" width="1" height="1" fill="#8e897d"/><rect x="22" y="4" width="1" height="1" fill="#1a1915"/><rect x="1" y="5" width="1" height="1" fill="#1a1915"/><rect x="2" y="5" width="1" height="1" fill="#fbfaf5"/><rect x="3" y="5" width="1" height="1" fill="#8e897d"/><rect x="4" y="5" width="13" height="1" fill="#1a3253"/><rect x="17" y="5" width="2" height="1" fill="#4d6f9c"/><rect x="19" y="5" width="1" height="1" fill="#1a3253"/><rect x="20" y="5" width="1" height="1" fill="#fbfaf5"/><rect x="21" y="5" width="1" height="1" fill="#8e897d"/><rect x="22" y="5" width="1" height="1" fill="#1a1915"/><rect x="1" y="6" width="1" height="1" fill="#1a1915"/><rect x="2" y="6" width="1" height="1" fill="#fbfaf5"/><rect x="3" y="6" width="1" height="1" fill="#8e897d"/><rect x="4" y="6" width="2" height="1" fill="#1e3a5f"/><rect x="6" y="6" width="1" height="1" fill="#e8c25a"/><rect x="7" y="6" width="1" height="1" fill="#1e3a5f"/><rect x="8" y="6" width="1" height="1" fill="#e8c25a"/><rect x="9" y="6" width="1" height="1" fill="#1e3a5f"/><rect x="10" y="6" width="3" height="1" fill="#fbfaf5"/><rect x="13" y="6" width="1" height="1" fill="#1e3a5f"/><rect x="14" y="6" width="1" height="1" fill="#93b9ff"/><rect x="15" y="6" width="1" height="1" fill="#1e3a5f"/><rect x="16" y="6" width="1" height="1" fill="#93b9ff"/><rect x="17" y="6" width="1" height="1" fill="#1e3a5f"/><rect x="18" y="6" width="1" height="1" fill="#4d6f9c"/><rect x="19" y="6" width="1" height="1" fill="#1e3a5f"/><rect x="20" y="6" width="1" height="1" fill="#fbfaf5"/><rect x="21" y="6" width="1" height="1" fill="#8e897d"/><rect x="22" y="6" width="1" height="1" fill="#1a1915"/><rect x="1" y="7" width="1" height="1" fill="#1a1915"/><rect x="2" y="7" width="1" height="1" fill="#fbfaf5"/><rect x="3" y="7" width="1" height="1" fill="#8e897d"/><rect x="4" y="7" width="2" height="1" fill="#1a3253"/><rect x="6" y="7" width="1" height="1" fill="#e8c25a"/><rect x="7" y="7" width="1" height="1" fill="#1a3253"/><rect x="8" y="7" width="1" height="1" fill="#e8c25a"/><rect x="9" y="7" width="1" height="1" fill="#1a3253"/><rect x="10" y="7" width="1" height="1" fill="#fbfaf5"/><rect x="11" y="7" width="1" height="1" fill="#1a3253"/><rect x="12" y="7" width="1" height="1" fill="#fbfaf5"/><rect x="13" y="7" width="1" height="1" fill="#1a3253"/><rect x="14" y="7" width="1" height="1" fill="#93b9ff"/><rect x="15" y="7" width="1" height="1" fill="#1a3253"/><rect x="16" y="7" width="1" height="1" fill="#93b9ff"/><rect x="17" y="7" width="3" height="1" fill="#1a3253"/><rect x="20" y="7" width="1" height="1" fill="#fbfaf5"/><rect x="21" y="7" width="1" height="1" fill="#8e897d"/><rect x="22" y="7" width="1" height="1" fill="#1a1915"/><rect x="1" y="8" width="1" height="1" fill="#1a1915"/><rect x="2" y="8" width="1" height="1" fill="#fbfaf5"/><rect x="3" y="8" width="1" height="1" fill="#8e897d"/><rect x="4" y="8" width="2" height="1" fill="#1e3a5f"/><rect x="6" y="8" width="3" height="1" fill="#e8c25a"/><rect x="9" y="8" width="1" height="1" fill="#1e3a5f"/><rect x="10" y="8" width="1" height="1" fill="#fbfaf5"/><rect x="11" y="8" width="1" height="1" fill="#1e3a5f"/><rect x="12" y="8" width="1" height="1" fill="#fbfaf5"/><rect x="13" y="8" width="1" height="1" fill="#1e3a5f"/><rect x="14" y="8" width="3" height="1" fill="#93b9ff"/><rect x="17" y="8" width="3" height="1" fill="#1e3a5f"/><rect x="20" y="8" width="1" height="1" fill="#fbfaf5"/><rect x="21" y="8" width="1" height="1" fill="#8e897d"/><rect x="22" y="8" width="1" height="1" fill="#1a1915"/><rect x="1" y="9" width="1" height="1" fill="#1a1915"/><rect x="2" y="9" width="1" height="1" fill="#fbfaf5"/><rect x="3" y="9" width="1" height="1" fill="#8e897d"/><rect x="4" y="9" width="4" height="1" fill="#1a3253"/><rect x="8" y="9" width="1" height="1" fill="#e8c25a"/><rect x="9" y="9" width="1" height="1" fill="#1a3253"/><rect x="10" y="9" width="1" height="1" fill="#fbfaf5"/><rect x="11" y="9" width="1" height="1" fill="#1a3253"/><rect x="12" y="9" width="1" height="1" fill="#fbfaf5"/><rect x="13" y="9" width="3" height="1" fill="#1a3253"/><rect x="16" y="9" width="1" height="1" fill="#93b9ff"/><rect x="17" y="9" width="3" height="1" fill="#1a3253"/><rect x="20" y="9" width="1" height="1" fill="#fbfaf5"/><rect x="21" y="9" width="1" height="1" fill="#8e897d"/><rect x="22" y="9" width="1" height="1" fill="#1a1915"/><rect x="1" y="10" width="1" height="1" fill="#1a1915"/><rect x="2" y="10" width="1" height="1" fill="#fbfaf5"/><rect x="3" y="10" width="1" height="1" fill="#8e897d"/><rect x="4" y="10" width="4" height="1" fill="#1e3a5f"/><rect x="8" y="10" width="1" height="1" fill="#e8c25a"/><rect x="9" y="10" width="1" height="1" fill="#1e3a5f"/><rect x="10" y="10" width="3" height="1" fill="#fbfaf5"/><rect x="13" y="10" width="3" height="1" fill="#1e3a5f"/><rect x="16" y="10" width="1" height="1" fill="#93b9ff"/><rect x="17" y="10" width="3" height="1" fill="#1e3a5f"/><rect x="20" y="10" width="1" height="1" fill="#fbfaf5"/><rect x="21" y="10" width="1" height="1" fill="#8e897d"/><rect x="22" y="10" width="1" height="1" fill="#1a1915"/><rect x="1" y="11" width="1" height="1" fill="#1a1915"/><rect x="2" y="11" width="1" height="1" fill="#fbfaf5"/><rect x="3" y="11" width="1" height="1" fill="#8e897d"/><rect x="4" y="11" width="16" height="1" fill="#1a3253"/><rect x="20" y="11" width="1" height="1" fill="#fbfaf5"/><rect x="21" y="11" width="1" height="1" fill="#8e897d"/><rect x="22" y="11" width="1" height="1" fill="#1a1915"/><rect x="1" y="12" width="1" height="1" fill="#1a1915"/><rect x="2" y="12" width="1" height="1" fill="#fbfaf5"/><rect x="3" y="12" width="1" height="1" fill="#8e897d"/><rect x="4" y="12" width="16" height="1" fill="#1e3a5f"/><rect x="20" y="12" width="1" height="1" fill="#fbfaf5"/><rect x="21" y="12" width="1" height="1" fill="#8e897d"/><rect x="22" y="12" width="1" height="1" fill="#1a1915"/><rect x="1" y="13" width="1" height="1" fill="#1a1915"/><rect x="2" y="13" width="1" height="1" fill="#fbfaf5"/><rect x="3" y="13" width="1" height="1" fill="#8e897d"/><rect x="4" y="13" width="1" height="1" fill="#fbfaf5"/><rect x="5" y="13" width="14" height="1" fill="#1a3253"/><rect x="19" y="13" width="2" height="1" fill="#fbfaf5"/><rect x="21" y="13" width="1" height="1" fill="#8e897d"/><rect x="22" y="13" width="1" height="1" fill="#1a1915"/><rect x="1" y="14" width="1" height="1" fill="#1a1915"/><rect x="2" y="14" width="19" height="1" fill="#fbfaf5"/><rect x="21" y="14" width="1" height="1" fill="#8e897d"/><rect x="22" y="14" width="1" height="1" fill="#1a1915"/><rect x="1" y="15" width="1" height="1" fill="#1a1915"/><rect x="2" y="15" width="1" height="1" fill="#fbfaf5"/><rect x="3" y="15" width="2" height="1" fill="#dedad0"/><rect x="5" y="15" width="7" height="1" fill="#55514a"/><rect x="12" y="15" width="6" height="1" fill="#dedad0"/><rect x="18" y="15" width="1" height="1" fill="#2e9d5f"/><rect x="19" y="15" width="2" height="1" fill="#dedad0"/><rect x="21" y="15" width="1" height="1" fill="#8e897d"/><rect x="22" y="15" width="1" height="1" fill="#1a1915"/><rect x="1" y="16" width="2" height="1" fill="#1a1915"/><rect x="3" y="16" width="18" height="1" fill="#8e897d"/><rect x="21" y="16" width="2" height="1" fill="#1a1915"/><rect x="2" y="17" width="20" height="1" fill="#1a1915"/><rect x="9" y="18" width="1" height="1" fill="#1a1915"/><rect x="10" y="18" width="4" height="1" fill="#8e897d"/><rect x="14" y="18" width="1" height="1" fill="#1a1915"/><rect x="9" y="19" width="6" height="1" fill="#1a1915"/><rect x="5" y="20" width="1" height="1" fill="#1a1915"/><rect x="6" y="20" width="12" height="1" fill="#dedad0"/><rect x="18" y="20" width="1" height="1" fill="#1a1915"/><rect x="5" y="21" width="14" height="1" fill="#1a1915"/><rect x="28" y="8" width="4" height="1" fill="#1a1915"/><rect x="34" y="8" width="5" height="1" fill="#1a1915"/><rect x="41" y="8" width="4" height="1" fill="#1a1915"/><rect x="46" y="8" width="1" height="1" fill="#1a1915"/><rect x="50" y="8" width="1" height="1" fill="#1a1915"/><rect x="59" y="8" width="1" height="1" fill="#1e3a5f"/><rect x="63" y="8" width="3" height="1" fill="#1e3a5f"/><rect x="71" y="8" width="1" height="1" fill="#1e3a5f"/><rect x="28" y="9" width="1" height="1" fill="#1a1915"/><rect x="32" y="9" width="1" height="1" fill="#1a1915"/><rect x="34" y="9" width="1" height="1" fill="#1a1915"/><rect x="40" y="9" width="1" height="1" fill="#1a1915"/><rect x="46" y="9" width="1" height="1" fill="#1a1915"/><rect x="49" y="9" width="1" height="1" fill="#1a1915"/><rect x="58" y="9" width="2" height="1" fill="#1e3a5f"/><rect x="62" y="9" width="1" height="1" fill="#1e3a5f"/><rect x="66" y="9" width="1" height="1" fill="#1e3a5f"/><rect x="70" y="9" width="2" height="1" fill="#1e3a5f"/><rect x="28" y="10" width="1" height="1" fill="#1a1915"/><rect x="32" y="10" width="1" height="1" fill="#1a1915"/><rect x="34" y="10" width="1" height="1" fill="#1a1915"/><rect x="40" y="10" width="1" height="1" fill="#1a1915"/><rect x="46" y="10" width="1" height="1" fill="#1a1915"/><rect x="48" y="10" width="1" height="1" fill="#1a1915"/><rect x="57" y="10" width="1" height="1" fill="#1e3a5f"/><rect x="59" y="10" width="1" height="1" fill="#1e3a5f"/><rect x="62" y="10" width="1" height="1" fill="#1e3a5f"/><rect x="65" y="10" width="2" height="1" fill="#1e3a5f"/><rect x="69" y="10" width="1" height="1" fill="#1e3a5f"/><rect x="71" y="10" width="1" height="1" fill="#1e3a5f"/><rect x="28" y="11" width="1" height="1" fill="#1a1915"/><rect x="32" y="11" width="1" height="1" fill="#1a1915"/><rect x="34" y="11" width="4" height="1" fill="#1a1915"/><rect x="41" y="11" width="3" height="1" fill="#1a1915"/><rect x="46" y="11" width="2" height="1" fill="#1a1915"/><rect x="56" y="11" width="1" height="1" fill="#1e3a5f"/><rect x="59" y="11" width="1" height="1" fill="#1e3a5f"/><rect x="62" y="11" width="1" height="1" fill="#1e3a5f"/><rect x="64" y="11" width="1" height="1" fill="#1e3a5f"/><rect x="66" y="11" width="1" height="1" fill="#1e3a5f"/><rect x="68" y="11" width="1" height="1" fill="#1e3a5f"/><rect x="71" y="11" width="1" height="1" fill="#1e3a5f"/><rect x="28" y="12" width="1" height="1" fill="#1a1915"/><rect x="32" y="12" width="1" height="1" fill="#1a1915"/><rect x="34" y="12" width="1" height="1" fill="#1a1915"/><rect x="44" y="12" width="1" height="1" fill="#1a1915"/><rect x="46" y="12" width="1" height="1" fill="#1a1915"/><rect x="48" y="12" width="1" height="1" fill="#1a1915"/><rect x="56" y="12" width="5" height="1" fill="#1e3a5f"/><rect x="62" y="12" width="2" height="1" fill="#1e3a5f"/><rect x="66" y="12" width="1" height="1" fill="#1e3a5f"/><rect x="68" y="12" width="5" height="1" fill="#1e3a5f"/><rect x="28" y="13" width="1" height="1" fill="#1a1915"/><rect x="32" y="13" width="1" height="1" fill="#1a1915"/><rect x="34" y="13" width="1" height="1" fill="#1a1915"/><rect x="44" y="13" width="1" height="1" fill="#1a1915"/><rect x="46" y="13" width="1" height="1" fill="#1a1915"/><rect x="49" y="13" width="1" height="1" fill="#1a1915"/><rect x="59" y="13" width="1" height="1" fill="#1e3a5f"/><rect x="62" y="13" width="1" height="1" fill="#1e3a5f"/><rect x="66" y="13" width="1" height="1" fill="#1e3a5f"/><rect x="71" y="13" width="1" height="1" fill="#1e3a5f"/><rect x="28" y="14" width="4" height="1" fill="#1a1915"/><rect x="34" y="14" width="5" height="1" fill="#1a1915"/><rect x="40" y="14" width="4" height="1" fill="#1a1915"/><rect x="46" y="14" width="1" height="1" fill="#1a1915"/><rect x="50" y="14" width="1" height="1" fill="#1a1915"/><rect x="59" y="14" width="1" height="1" fill="#1e3a5f"/><rect x="63" y="14" width="3" height="1" fill="#1e3a5f"/><rect x="71" y="14" width="1" height="1" fill="#1e3a5f"/></svg>
