<svg xmlns="http://www.w3.org/2000/svg" viewBox="0 0 38 38" width="228" height="228" shape-rendering="crispEdges" role="img" aria-label="Desk 404"><rect x="28" y="1" width="7" height="1" fill="#f2d45c"/><rect x="9" y="2" width="19" height="1" fill="#f6eee1"/><rect x="28" y="2" width="1" height="1" fill="#f2d45c"/><rect x="29" y="2" width="5" height="1" fill="#8a7a2c"/><rect x="34" y="2" width="1" height="1" fill="#f2d45c"/><rect x="8" y="3" width="20" height="1" fill="#f6eee1"/><rect x="28" y="3" width="7" height="1" fill="#f2d45c"/><rect x="7" y="4" width="2" height="1" fill="#f6eee1"/><rect x="9" y="4" width="1" height="1" fill="#c9bca6"/><rect x="10" y="4" width="18" height="1" fill="#e9dfcd"/><rect x="28" y="4" width="1" height="1" fill="#f2d45c"/><rect x="29" y="4" width="3" height="1" fill="#8a7a2c"/><rect x="32" y="4" width="3" height="1" fill="#f2d45c"/><rect x="6" y="5" width="2" height="1" fill="#f6eee1"/><rect x="8" y="5" width="2" height="1" fill="#c9bca6"/><rect x="10" y="5" width="18" height="1" fill="#e9dfcd"/><rect x="28" y="5" width="7" height="1" fill="#f2d45c"/><rect x="5" y="6" width="2" height="1" fill="#f6eee1"/><rect x="7" y="6" width="1" height="1" fill="#b4a68f"/><rect x="8" y="6" width="2" height="1" fill="#c9bca6"/><rect x="10" y="6" width="3" height="1" fill="#e9dfcd"/><rect x="13" y="6" width="15" height="1" fill="#6f6a64"/><rect x="28" y="6" width="7" height="1" fill="#d4b440"/><rect x="5" y="7" width="1" height="1" fill="#f6eee1"/><rect x="6" y="7" width="2" height="1" fill="#b4a68f"/><rect x="8" y="7" width="2" height="1" fill="#c9bca6"/><rect x="10" y="7" width="3" height="1" fill="#e9dfcd"/><rect x="13" y="7" width="1" height="1" fill="#6f6a64"/><rect x="14" y="7" width="16" height="1" fill="#141414"/><rect x="30" y="7" width="1" height="1" fill="#8d8780"/><rect x="31" y="7" width="2" height="1" fill="#e9dfcd"/><rect x="33" y="7" width="1" height="1" fill="#ddd2be"/><rect x="5" y="8" width="3" height="1" fill="#b4a68f"/><rect x="8" y="8" width="2" height="1" fill="#c9bca6"/><rect x="10" y="8" width="3" height="1" fill="#e9dfcd"/><rect x="13" y="8" width="1" height="1" fill="#6f6a64"/><rect x="14" y="8" width="16" height="1" fill="#1f1f1f"/><rect x="30" y="8" width="1" height="1" fill="#8d8780"/><rect x="31" y="8" width="2" height="1" fill="#e9dfcd"/><rect x="33" y="8" width="1" height="1" fill="#ddd2be"/><rect x="5" y="9" width="3" height="1" fill="#b4a68f"/><rect x="8" y="9" width="2" height="1" fill="#c9bca6"/><rect x="10" y="9" width="3" height="1" fill="#e9dfcd"/><rect x="13" y="9" width="1" height="1" fill="#6f6a64"/><rect x="14" y="9" width="1" height="1" fill="#141414"/><rect x="15" y="9" width="1" height="1" fill="#6bd873"/><rect x="16" y="9" width="2" height="1" fill="#141414"/><rect x="18" y="9" width="1" height="1" fill="#6bd873"/><rect x="19" y="9" width="1" height="1" fill="#141414"/><rect x="20" y="9" width="4" height="1" fill="#6bd873"/><rect x="24" y="9" width="1" height="1" fill="#141414"/><rect x="25" y="9" width="1" height="1" fill="#6bd873"/><rect x="26" y="9" width="2" height="1" fill="#141414"/><rect x="28" y="9" width="1" height="1" fill="#6bd873"/><rect x="29" y="9" width="1" height="1" fill="#141414"/><rect x="30" y="9" width="1" height="1" fill="#8d8780"/><rect x="31" y="9" width="2" height="1" fill="#e9dfcd"/><rect x="33" y="9" width="1" height="1" fill="#ddd2be"/><rect x="5" y="10" width="3" height="1" fill="#b4a68f"/><rect x="8" y="10" width="2" height="1" fill="#c9bca6"/><rect x="10" y="10" width="3" height="1" fill="#e9dfcd"/><rect x="13" y="10" width="1" height="1" fill="#6f6a64"/><rect x="14" y="10" width="1" height="1" fill="#1f1f1f"/><rect x="15" y="10" width="1" height="1" fill="#6bd873"/><rect x="16" y="10" width="2" height="1" fill="#1f1f1f"/><rect x="18" y="10" width="1" height="1" fill="#6bd873"/><rect x="19" y="10" width="1" height="1" fill="#1f1f1f"/><rect x="20" y="10" width="1" height="1" fill="#6bd873"/><rect x="21" y="10" width="2" height="1" fill="#1f1f1f"/><rect x="23" y="10" width="1" height="1" fill="#6bd873"/><rect x="24" y="10" width="1" height="1" fill="#1f1f1f"/><rect x="25" y="10" width="1" height="1" fill="#6bd873"/><rect x="26" y="10" width="2" height="1" fill="#1f1f1f"/><rect x="28" y="10" width="1" height="1" fill="#6bd873"/><rect x="29" y="10" width="1" height="1" fill="#1f1f1f"/><rect x="30" y="10" width="1" height="1" fill="#8d8780"/><rect x="31" y="10" width="2" height="1" fill="#e9dfcd"/><rect x="33" y="10" width="1" height="1" fill="#ddd2be"/><rect x="5" y="11" width="3" height="1" fill="#b4a68f"/><rect x="8" y="11" width="2" height="1" fill="#c9bca6"/><rect x="10" y="11" width="3" height="1" fill="#e9dfcd"/><rect x="13" y="11" width="1" height="1" fill="#6f6a64"/><rect x="14" y="11" width="1" height="1" fill="#141414"/><rect x="15" y="11" width="1" height="1" fill="#6bd873"/><rect x="16" y="11" width="2" height="1" fill="#141414"/><rect x="18" y="11" width="1" height="1" fill="#6bd873"/><rect x="19" y="11" width="1" height="1" fill="#141414"/><rect x="20" y="11" width="1" height="1" fill="#6bd873"/><rect x="21" y="11" width="2" height="1" fill="#141414"/><rect x="23" y="11" width="1" height="1" fill="#6bd873"/><rect x="24" y="11" width="1" height="1" fill="#141414"/><rect x="25" y="11" width="1" height="1" fill="#6bd873"/><rect x="26" y="11" width="2" height="1" fill="#141414"/><rect x="28" y="11" width="1" height="1" fill="#6bd873"/><rect x="29" y="11" width="1" height="1" fill="#141414"/><rect x="30" y="11" width="1" height="1" fill="#8d8780"/><rect x="31" y="11" width="2" height="1" fill="#e9dfcd"/><rect x="33" y="11" width="1" height="1" fill="#ddd2be"/><rect x="5" y="12" width="3" height="1" fill="#b4a68f"/><rect x="8" y="12" width="2" height="1" fill="#c9bca6"/><rect x="10" y="12" width="3" height="1" fill="#e9dfcd"/><rect x="13" y="12" width="1" height="1" fill="#6f6a64"/><rect x="14" y="12" width="1" height="1" fill="#1f1f1f"/><rect x="15" y="12" width="4" height="1" fill="#6bd873"/><rect x="19" y="12" width="1" height="1" fill="#1f1f1f"/><rect x="20" y="12" width="1" height="1" fill="#6bd873"/><rect x="21" y="12" width="2" height="1" fill="#1f1f1f"/><rect x="23" y="12" width="1" height="1" fill="#6bd873"/><rect x="24" y="12" width="1" height="1" fill="#1f1f1f"/><rect x="25" y="12" width="4" height="1" fill="#6bd873"/><rect x="29" y="12" width="1" height="1" fill="#1f1f1f"/><rect x="30" y="12" width="1" height="1" fill="#8d8780"/><rect x="31" y="12" width="2" height="1" fill="#e9dfcd"/><rect x="33" y="12" width="1" height="1" fill="#ddd2be"/><rect x="5" y="13" width="3" height="1" fill="#b4a68f"/><rect x="8" y="13" width="2" height="1" fill="#c9bca6"/><rect x="10" y="13" width="3" height="1" fill="#e9dfcd"/><rect x="13" y="13" width="1" height="1" fill="#6f6a64"/><rect x="14" y="13" width="4" height="1" fill="#141414"/><rect x="18" y="13" width="1" height="1" fill="#6bd873"/><rect x="19" y="13" width="1" height="1" fill="#141414"/><rect x="20" y="13" width="1" height="1" fill="#6bd873"/><rect x="21" y="13" width="2" height="1" fill="#141414"/><rect x="23" y="13" width="1" height="1" fill="#6bd873"/><rect x="24" y="13" width="4" height="1" fill="#141414"/><rect x="28" y="13" width="1" height="1" fill="#6bd873"/><rect x="29" y="13" width="1" height="1" fill="#141414"/><rect x="30" y="13" width="1" height="1" fill="#8d8780"/><rect x="31" y="13" width="2" height="1" fill="#e9dfcd"/><rect x="33" y="13" width="1" height="1" fill="#ddd2be"/><rect x="5" y="14" width="3" height="1" fill="#b4a68f"/><rect x="8" y="14" width="2" height="1" fill="#c9bca6"/><rect x="10" y="14" width="3" height="1" fill="#e9dfcd"/><rect x="13" y="14" width="1" height="1" fill="#6f6a64"/><rect x="14" y="14" width="4" height="1" fill="#1f1f1f"/><rect x="18" y="14" width="1" height="1" fill="#6bd873"/><rect x="19" y="14" width="1" height="1" fill="#1f1f1f"/><rect x="20" y="14" width="4" height="1" fill="#6bd873"/><rect x="24" y="14" width="4" height="1" fill="#1f1f1f"/><rect x="28" y="14" width="1" height="1" fill="#6bd873"/><rect x="29" y="14" width="1" height="1" fill="#1f1f1f"/><rect x="30" y="14" width="1" height="1" fill="#8d8780"/><rect x="31" y="14" width="2" height="1" fill="#e9dfcd"/><rect x="33" y="14" width="1" height="1" fill="#ddd2be"/><rect x="5" y="15" width="3" height="1" fill="#b4a68f"/><rect x="8" y="15" width="2" height="1" fill="#c9bca6"/><rect x="10" y="15" width="3" height="1" fill="#e9dfcd"/><rect x="13" y="15" width="1" height="1" fill="#6f6a64"/><rect x="14" y="15" width="16" height="1" fill="#141414"/><rect x="30" y="15" width="1" height="1" fill="#8d8780"/><rect x="31" y="15" width="2" height="1" fill="#e9dfcd"/><rect x="33" y="15" width="1" height="1" fill="#ddd2be"/><rect x="5" y="16" width="3" height="1" fill="#b4a68f"/><rect x="8" y="16" width="2" height="1" fill="#c9bca6"/><rect x="10" y="16" width="3" height="1" fill="#e9dfcd"/><rect x="13" y="16" width="1" height="1" fill="#6f6a64"/><rect x="14" y="16" width="1" height="1" fill="#1f1f1f"/><rect x="15" y="16" width="3" height="1" fill="#6bd873"/><rect x="18" y="16" width="12" height="1" fill="#1f1f1f"/><rect x="30" y="16" width="1" height="1" fill="#8d8780"/><rect x="31" y="16" width="2" height="1" fill="#e9dfcd"/><rect x="33" y="16" width="1" height="1" fill="#ddd2be"/><rect x="5" y="17" width="3" height="1" fill="#b4a68f"/><rect x="8" y="17" width="2" height="1" fill="#c9bca6"/><rect x="10" y="17" width="3" height="1" fill="#e9dfcd"/><rect x="13" y="17" width="1" height="1" fill="#6f6a64"/><rect x="14" y="17" width="16" height="1" fill="#141414"/><rect x="30" y="17" width="1" height="1" fill="#8d8780"/><rect x="31" y="17" width="2" height="1" fill="#e9dfcd"/><rect x="33" y="17" width="1" height="1" fill="#ddd2be"/><rect x="5" y="18" width="3" height="1" fill="#b4a68f"/><rect x="8" y="18" width="2" height="1" fill="#c9bca6"/><rect x="10" y="18" width="3" height="1" fill="#e9dfcd"/><rect x="13" y="18" width="1" height="1" fill="#6f6a64"/><rect x="14" y="18" width="16" height="1" fill="#1f1f1f"/><rect x="30" y="18" width="1" height="1" fill="#8d8780"/><rect x="31" y="18" width="2" height="1" fill="#e9dfcd"/><rect x="33" y="18" width="1" height="1" fill="#ddd2be"/><rect x="5" y="19" width="3" height="1" fill="#b4a68f"/><rect x="8" y="19" width="2" height="1" fill="#c9bca6"/><rect x="10" y="19" width="3" height="1" fill="#e9dfcd"/><rect x="13" y="19" width="1" height="1" fill="#6f6a64"/><rect x="14" y="19" width="17" height="1" fill="#8d8780"/><rect x="31" y="19" width="2" height="1" fill="#e9dfcd"/><rect x="33" y="19" width="1" height="1" fill="#ddd2be"/><rect x="5" y="20" width="3" height="1" fill="#b4a68f"/><rect x="8" y="20" width="2" height="1" fill="#c9bca6"/><rect x="10" y="20" width="23" height="1" fill="#e9dfcd"/><rect x="33" y="20" width="1" height="1" fill="#ddd2be"/><rect x="5" y="21" width="3" height="1" fill="#b4a68f"/><rect x="8" y="21" width="2" height="1" fill="#c9bca6"/><rect x="10" y="21" width="23" height="1" fill="#e9dfcd"/><rect x="33" y="21" width="1" height="1" fill="#ddd2be"/><rect x="5" y="22" width="3" height="1" fill="#b4a68f"/><rect x="8" y="22" width="2" height="1" fill="#c9bca6"/><rect x="10" y="22" width="17" height="1" fill="#ddd2be"/><rect x="27" y="22" width="2" height="1" fill="#b8afa3"/><rect x="29" y="22" width="1" height="1" fill="#ddd2be"/><rect x="30" y="22" width="2" height="1" fill="#b8afa3"/><rect x="32" y="22" width="2" height="1" fill="#ddd2be"/><rect x="5" y="23" width="3" height="1" fill="#b4a68f"/><rect x="8" y="23" width="2" height="1" fill="#c9bca6"/><rect x="10" y="23" width="24" height="1" fill="#ddd2be"/><rect x="5" y="24" width="3" height="1" fill="#b4a68f"/><rect x="8" y="24" width="2" height="1" fill="#c9bca6"/><rect x="10" y="24" width="24" height="1" fill="#ddd2be"/><rect x="5" y="25" width="3" height="1" fill="#b4a68f"/><rect x="8" y="25" width="2" height="1" fill="#c9bca6"/><rect x="10" y="25" width="24" height="1" fill="#b4a68f"/><rect x="17" y="26" width="10" height="1" fill="#b4a68f"/><rect x="17" y="27" width="10" height="1" fill="#b4a68f"/><rect x="3" y="28" width="35" height="1" fill="#f6eee1"/><rect x="2" y="29" width="1" height="1" fill="#f6eee1"/><rect x="3" y="29" width="1" height="1" fill="#b4a68f"/><rect x="4" y="29" width="34" height="1" fill="#f6eee1"/><rect x="1" y="30" width="1" height="1" fill="#f6eee1"/><rect x="2" y="30" width="2" height="1" fill="#b4a68f"/><rect x="4" y="30" width="33" height="1" fill="#e9dfcd"/><rect x="37" y="30" width="1" height="1" fill="#ddd2be"/><rect x="0" y="31" width="1" height="1" fill="#f6eee1"/><rect x="1" y="31" width="3" height="1" fill="#b4a68f"/><rect x="4" y="31" width="4" height="1" fill="#e9dfcd"/><rect x="8" y="31" width="2" height="1" fill="#b8afa3"/><rect x="10" y="31" width="27" height="1" fill="#e9dfcd"/><rect x="37" y="31" width="1" height="1" fill="#ddd2be"/><rect x="0" y="32" width="4" height="1" fill="#b4a68f"/><rect x="4" y="32" width="3" height="1" fill="#e9dfcd"/><rect x="7" y="32" width="12" height="1" fill="#141414"/><rect x="19" y="32" width="10" height="1" fill="#e9dfcd"/><rect x="29" y="32" width="2" height="1" fill="#b8afa3"/><rect x="31" y="32" width="2" height="1" fill="#e9dfcd"/><rect x="33" y="32" width="2" height="1" fill="#e8a33a"/><rect x="35" y="32" width="2" height="1" fill="#e9dfcd"/><rect x="37" y="32" width="1" height="1" fill="#ddd2be"/><rect x="0" y="33" width="4" height="1" fill="#b4a68f"/><rect x="4" y="33" width="3" height="1" fill="#e9dfcd"/><rect x="7" y="33" width="12" height="1" fill="#b4a68f"/><rect x="19" y="33" width="10" height="1" fill="#e9dfcd"/><rect x="29" y="33" width="2" height="1" fill="#b8afa3"/><rect x="31" y="33" width="6" height="1" fill="#e9dfcd"/><rect x="37" y="33" width="1" height="1" fill="#ddd2be"/><rect x="0" y="34" width="4" height="1" fill="#b4a68f"/><rect x="4" y="34" width="33" height="1" fill="#e9dfcd"/><rect x="37" y="34" width="1" height="1" fill="#ddd2be"/><rect x="0" y="35" width="4" height="1" fill="#b4a68f"/><rect x="4" y="35" width="34" height="1" fill="#ddd2be"/><rect x="4" y="36" width="34" height="1" fill="#b4a68f"/></svg>
